<svg xmlns="http://www.w3.org/2000/svg" width="10.031" height="10.06" viewBox="0 0 10.031 10.06">
  <defs>
    <style>
      .cls-1 {
        fill: #a89574;
        fill-rule: evenodd;
      }
    </style>
  </defs>
  <path id="Phone" class="cls-1" d="M224,2087a1,1,0,0,1-1-1v-1a1,1,0,0,1,.59-0.91l-0.717.07a0.708,0.708,0,0,0-.669-0.68c-0.81.05-3.959-.13-4.5,0.05a1.107,1.107,0,0,0-.635,1.13l-0.135.02a0.986,0.986,0,0,1,.065.32v1a1,1,0,0,1-2,0v-1a1.007,1.007,0,0,1,.032-0.16h0a1,1,0,0,1,.087-0.29c0.424-1.33,2.394-2.29,2.957-2.43a10.811,10.811,0,0,1,2.3-.18,14,14,0,0,0,1.517.1c1.057-.04,3.108,1.93,3.108,1.93l-0.805.07a0.985,0.985,0,0,1,.805.96v1A1,1,0,0,1,224,2087Zm-8.3,3.06a23.089,23.089,0,0,1,3.108-3.21c1.329-.98,2.186-0.09,5.342,3.18a0.976,0.976,0,0,1,.822.85c0.02,0.02.034,0.04,0.054,0.06h-0.042c0,0.02.012,0.04,0.012,0.06a1,1,0,0,1-1,1h-8a1,1,0,0,1-1-1A0.988,0.988,0,0,1,215.7,2090.06Zm4.171,0.53a1.305,1.305,0,1,0-1.306-1.31A1.31,1.31,0,0,0,219.875,2090.59Z" transform="translate(-215 -2081.94)"/>
</svg>
